# xmcd
#
# Track frame offsets: 
#        150
#        10744
#        26251
#        43438
#        55439
#        68847
#        80366
#        86927
#        100277
#        118901
#        127769
#        140298
#
# Disc length: 2036 seconds
#
# Revision: 0
# Processed by: cddbd v1.5.2PL0 Copyright (c) Steve Scherf et al.
# Submitted via: ExactAudioCopy v1.1
#
DISCID=a007f20c
DTITLE=Various Artist - Best of Country Gospel
DYEAR=2010
DGENRE=Country
TTITLE0=Ferlin Husky - Wings of a Dove
TTITLE1=Holly Dunn - What A Friend We Have In Jesus
TTITLE2=Jack Greene - Oh Happy Day
TTITLE3=Oak Ridge Boys - When I Lay My Burdens Down
TTITLE4=Jeanne Pruett - Uncloudy Day
TTITLE5=Porter Wagoner - What Would You Do If Jesus Came To Your House
TTITLE6=Boxcar Willie - I Saw the Light
TTITLE7=Patsy Cline - Life's Railway to Heaven
TTITLE8=Holly Dunn - Sweet Hour of Prayer
TTITLE9=Jack Greene - A Wonderful Time Up There
TTITLE10=Oak Ridge Boys - You'll Never Walk Alone
TTITLE11=Boxcar Willie - Peace In The Valley
EXTD=
EXTT0=
EXTT1=
EXTT2=
EXTT3=
EXTT4=
EXTT5=
EXTT6=
EXTT7=
EXTT8=
EXTT9=
EXTT10=
EXTT11=
PLAYORDER=
